name analog
datacolumns 19
datarows 18
range 0.364 0.3725
endheader
time	ground_force_vx	ground_force_vy	ground_force_vz	ground_force_px	ground_force_py	ground_force_pz	l_ground_force_vx	l_ground_force_vy	l_ground_force_vz	l_ground_force_px	l_ground_force_py	l_ground_force_pz	ground_torque_x	ground_torque_y	ground_torque_z	l_ground_torque_x	l_ground_torque_y	l_ground_torque_z
0.364	-0.0	-0.0	-0.0	-7.949887275695801	13.00289535522461	-265.89093017578125	-4.865005016326904	-14.742708206176758	-242.60491943359372	-0.0	-0.0	-0.0	-0.0	-0.0	-0.0	69442.296875	-12365.3876953125	-5346.7314453125
0.3645	-0.0	-0.0	-0.0	-8.124835968017578	12.738973617553713	-264.5185852050781	-4.964325904846191	-14.64754867553711	-238.56637573242188	-0.0	-0.0	-0.0	-0.0	-0.0	-0.0	68906.09375	-12244.158203125	-5229.28466796875
0.365	-0.0	-0.0	-0.0	-8.825244903564453	12.643336296081545	-264.1263732910156	-4.797255516052246	-14.725770950317385	-237.82635498046875	-0.0	-0.0	-0.0	-0.0	-0.0	-0.0	68521.53125	-12251.017578125	-5288.50048828125
0.3655	-0.0	-0.0	-0.0	-8.573884963989258	12.666183471679688	-261.3786926269531	-4.547799110412598	-14.637953758239746	-237.40985107421875	-0.0	-0.0	-0.0	-0.0	-0.0	-0.0	67990.6875	-11995.72265625	-5260.8623046875
0.366	-0.0	-0.0	-0.0	-9.089975357055664	12.732996940612791	-262.4628601074219	-4.701671600341797	-14.219791412353516	-236.01348876953125	-0.0	-0.0	-0.0	-0.0	-0.0	-0.0	67575.296875	-12073.6708984375	-5199.26806640625
0.3665	-0.0	-0.0	-0.0	-8.216732025146484	12.02012825012207	-263.47222900390625	-4.958020210266113	-14.036654472351074	-236.28579711914065	-0.0	-0.0	-0.0	-0.0	-0.0	-0.0	67232.71875	-12186.9267578125	-5081.8232421875
0.367	-0.0	-0.0	-0.0	-8.022848129272461	11.3408842086792	-261.7667236328125	-5.392224788665772	-14.156868934631348	-235.3658447265625	-0.0	-0.0	-0.0	-0.0	-0.0	-0.0	67488.3828125	-11708.7685546875	-5142.5087890625
0.3675	-0.0	-0.0	-0.0	-7.041651725769043	11.325533866882324	-266.6035461425781	-5.658712863922119	-14.38708782196045	-236.65089416503903	-0.0	-0.0	-0.0	-0.0	-0.0	-0.0	67247.40625	-12223.958984375	-5428.873046875
0.368	-0.0	-0.0	-0.0	-5.6348490715026855	10.89722728729248	-266.9462890625	-5.402183532714844	-14.390345573425291	-235.0271759033203	-0.0	-0.0	-0.0	-0.0	-0.0	-0.0	67892.890625	-11885.4990234375	-5111.75732421875
0.3685	-0.0	-0.0	-0.0	-5.1742095947265625	10.612257957458496	-268.4849853515625	-4.603919506072998	-14.29611110687256	-235.3163299560547	-0.0	-0.0	-0.0	-0.0	-0.0	-0.0	67653.140625	-12065.8935546875	-5133.74560546875
0.369	-0.0	-0.0	-0.0	-3.649188041687012	10.704083442687988	-269.5208740234375	-3.7199416160583496	-13.236482620239258	-238.0399627685547	-0.0	-0.0	-0.0	-0.0	-0.0	-0.0	68111.078125	-12351.7109375	-4899.5859375
0.3695	-0.0	-0.0	-0.0	-2.3331806659698486	10.509170532226562	-273.6493530273437	-1.865809679031372	-12.00600814819336	-237.07394409179688	-0.0	-0.0	-0.0	-0.0	-0.0	-0.0	68372.3359375	-12497.4833984375	-4625.2177734375
0.37	-0.0	-0.0	-0.0	-1.5814917087554932	10.071735382080078	-277.22491455078125	0.0056833559647202	-11.387839317321776	-239.2359619140625	-0.0	-0.0	-0.0	-0.0	-0.0	-0.0	68993.453125	-12796.845703125	-4121.43896484375
0.3705	-0.0	-0.0	-0.0	0.3621551394462585	10.168828010559082	-278.3373413085937	1.6966999769210815	-10.587456703186035	-241.656982421875	-0.0	-0.0	-0.0	-0.0	-0.0	-0.0	69881.4375	-13164.404296875	-3503.710693359375
0.371	-0.0	-0.0	-0.0	2.8366503715515137	10.76928997039795	-283.2605285644531	4.266296863555908	-9.44770622253418	-245.14735412597656	-0.0	-0.0	-0.0	-0.0	-0.0	-0.0	70743.0	-13717.7548828125	-2838.908447265625
0.3715	-0.0	-0.0	-0.0	3.6727778911590576	10.257562637329102	-286.4489440917969	6.129046440124512	-8.564547538757324	-248.88211059570312	-0.0	-0.0	-0.0	-0.0	-0.0	-0.0	71296.8828125	-13975.158203125	-2451.904052734375
0.372	-0.0	-0.0	-0.0	6.162882328033447	10.42825698852539	-291.01055908203125	8.790155410766602	-6.89167594909668	-251.7587432861328	-0.0	-0.0	-0.0	-0.0	-0.0	-0.0	72511.1015625	-14461.833984375	-1830.329345703125
0.3725	-0.0	-0.0	-0.0	8.118156433105469	10.336721420288086	-297.0243530273437	11.000137329101562	-5.925172805786133	-253.48406982421875	-0.0	-0.0	-0.0	-0.0	-0.0	-0.0	73579.4140625	-14920.85546875	-1151.4322509765625
